<svg xmlns="http://www.w3.org/2000/svg" width="200" height="200" viewBox="0 0 200 200">
  <g id="Group_1437" data-name="Group 1437" transform="translate(-947 -5839)">
    <path id="Subtraction_27" data-name="Subtraction 27" d="M487,945H307a10.011,10.011,0,0,1-10-10V755a10.011,10.011,0,0,1,10-10H487a10.011,10.011,0,0,1,10,10V935A10.011,10.011,0,0,1,487,945ZM335,773a10.011,10.011,0,0,0-10,10V907a10.011,10.011,0,0,0,10,10H459a10.011,10.011,0,0,0,10-10V783a10.011,10.011,0,0,0-10-10Z" transform="translate(650 5094)" fill="#2b879e"/>
    <path id="Union_22" data-name="Union 22" d="M332.356,825.619l-28.284-28.284a14.154,14.154,0,0,1,0-16.978l28.284-28.284a10,10,0,0,1,14.142,0l2.121,2.121a10,10,0,0,1,0,14.142l-20.511,20.511,20.511,20.51a10,10,0,0,1,0,14.142l-2.121,2.121a10,10,0,0,1-14.142,0Z" transform="translate(718.609 5151.701)" fill="#2b879e"/>
  </g>
</svg>
