<svg xmlns="http://www.w3.org/2000/svg" width="200" height="200" viewBox="0 0 200 200">
  <g id="Group_1373" data-name="Group 1373" transform="translate(-944 -4320)">
    <g id="Group_73" data-name="Group 73" transform="translate(-1 265)">
      <rect id="Rectangle_108" data-name="Rectangle 108" width="34" height="162" rx="10" transform="translate(964 4124) rotate(-90)" fill="#2b879e"/>
      <rect id="Rectangle_117" data-name="Rectangle 117" width="28" height="49" rx="10" transform="translate(1030 4104) rotate(180)" fill="#2b879e"/>
      <rect id="Rectangle_118" data-name="Rectangle 118" width="28" height="49" rx="10" transform="translate(1084 4104) rotate(180)" fill="#2b879e"/>
      <rect id="Rectangle_119" data-name="Rectangle 119" width="28" height="77" rx="10" transform="translate(1082.5 4055.5) rotate(90)" fill="#2b879e"/>
      <rect id="Rectangle_112" data-name="Rectangle 112" width="28" height="111" rx="10" transform="translate(993 4255) rotate(-90)" fill="#2b879e"/>
      <rect id="Rectangle_114" data-name="Rectangle 114" width="12" height="87" rx="6" transform="translate(1035.5 4214.5) rotate(180)" fill="#2b879e"/>
      <rect id="Rectangle_115" data-name="Rectangle 115" width="12" height="87" rx="6" transform="translate(1051.5 4214.5) rotate(180)" fill="#2b879e"/>
      <rect id="Rectangle_116" data-name="Rectangle 116" width="12" height="87" rx="6" transform="translate(1067.5 4214.5) rotate(180)" fill="#2b879e"/>
      <rect id="Rectangle_109" data-name="Rectangle 109" width="28" height="159" rx="10" transform="translate(1014 4255) rotate(180)" fill="#2b879e"/>
      <rect id="Rectangle_111" data-name="Rectangle 111" width="28" height="155" rx="10" transform="translate(1104 4255) rotate(180)" fill="#2b879e"/>
    </g>
    <rect id="Rectangle_170" data-name="Rectangle 170" width="200" height="200" transform="translate(944 4320)" fill="none"/>
  </g>
</svg>
