<svg xmlns="http://www.w3.org/2000/svg" width="200" height="200" viewBox="0 0 200 200">
  <g id="Group_70" data-name="Group 70" transform="translate(-410 -4300)">
    <path id="Subtraction_16" data-name="Subtraction 16" d="M100,200a100.74,100.74,0,0,1-20.154-2.032,99.453,99.453,0,0,1-35.758-15.047,100.292,100.292,0,0,1-36.231-44,99.492,99.492,0,0,1-5.827-18.771,100.974,100.974,0,0,1,0-40.307A99.454,99.454,0,0,1,17.078,44.089a100.292,100.292,0,0,1,44-36.23A99.5,99.5,0,0,1,79.847,2.032a100.979,100.979,0,0,1,40.307,0,99.452,99.452,0,0,1,35.757,15.047,100.29,100.29,0,0,1,36.23,44,99.494,99.494,0,0,1,5.827,18.771,100.976,100.976,0,0,1,0,40.307,99.454,99.454,0,0,1-15.047,35.758,100.291,100.291,0,0,1-44,36.231,99.5,99.5,0,0,1-18.771,5.827A100.737,100.737,0,0,1,100,200Zm0-171.859A71.525,71.525,0,0,0,59.823,40.413,72.068,72.068,0,0,0,33.788,72.029a71.764,71.764,0,0,0,6.625,68.148,72.069,72.069,0,0,0,31.616,26.035,71.764,71.764,0,0,0,68.148-6.625,72.071,72.071,0,0,0,26.035-31.616,71.764,71.764,0,0,0-6.625-68.148,72.069,72.069,0,0,0-31.616-26.035A71.408,71.408,0,0,0,100,28.141Z" transform="translate(410 4300)" fill="#2b879e"/>
    <rect id="Rectangle_132" data-name="Rectangle 132" width="28" height="80" rx="10" transform="translate(495.497 4344.37)" fill="#2b879e"/>
    <rect id="Rectangle_133" data-name="Rectangle 133" width="28" height="28" rx="14" transform="translate(495.497 4432.772)" fill="#2b879e"/>
  </g>
</svg>
