<svg xmlns="http://www.w3.org/2000/svg" width="199" height="199" viewBox="0 0 199 199">
  <g id="Group_1359" data-name="Group 1359" transform="translate(-410 -4300.001)">
    <path id="Subtraction_16" data-name="Subtraction 16" d="M396.5,944a100.235,100.235,0,0,1-20.053-2.021,98.955,98.955,0,0,1-35.579-14.972,99.791,99.791,0,0,1-36.049-43.777,99,99,0,0,1-5.8-18.677,100.469,100.469,0,0,1,0-40.105,98.956,98.956,0,0,1,14.971-35.579,99.79,99.79,0,0,1,43.777-36.049,99,99,0,0,1,18.677-5.8,100.474,100.474,0,0,1,40.106,0,98.954,98.954,0,0,1,35.579,14.971,99.789,99.789,0,0,1,36.049,43.777,99,99,0,0,1,5.8,18.677,100.471,100.471,0,0,1,0,40.105,98.956,98.956,0,0,1-14.971,35.579,99.789,99.789,0,0,1-43.777,36.05,99,99,0,0,1-18.677,5.8A100.232,100.232,0,0,1,396.5,944Zm0-171a71.168,71.168,0,0,0-39.977,12.211,71.708,71.708,0,0,0-25.905,31.458,71.406,71.406,0,0,0,6.592,67.807,71.709,71.709,0,0,0,31.458,25.905,71.4,71.4,0,0,0,67.807-6.592,71.71,71.71,0,0,0,25.9-31.458,71.406,71.406,0,0,0-6.592-67.807,71.709,71.709,0,0,0-31.458-25.9A71.051,71.051,0,0,0,396.5,773Z" transform="translate(113 3555)" fill="#fff"/>
    <rect id="Rectangle_132" data-name="Rectangle 132" width="28" height="80" rx="10" transform="translate(495 4344)" fill="#fff"/>
    <rect id="Rectangle_133" data-name="Rectangle 133" width="28" height="28" rx="14" transform="translate(495 4432)" fill="#fff"/>
  </g>
</svg>
