<svg xmlns="http://www.w3.org/2000/svg" width="200" height="200" viewBox="0 0 200 200">
  <g id="Group_1364" data-name="Group 1364" transform="translate(-144 -4805)">
    <g id="Group_75" data-name="Group 75" transform="translate(144 4805)">
      <g id="Group_74" data-name="Group 74" transform="translate(3.469 22.496)">
        <path id="Union_16" data-name="Union 16" d="M76.682,153.062a98.568,98.568,0,0,1-35.429-14.894,99.281,99.281,0,0,1-35.9-43.547A98.507,98.507,0,0,1,0,77.978c.033-.147.067-.3.1-.442-.034-.147-.068-.3-.1-.442A98.377,98.377,0,0,1,14.491,43.639,99.165,99.165,0,0,1,187.944,60.452,98.4,98.4,0,0,1,193.3,77.094c-.033.147-.067.3-.1.442.034.147.068.295.1.442a98.379,98.379,0,0,1-14.491,33.455,99.373,99.373,0,0,1-43.592,35.861,98.7,98.7,0,0,1-18.6,5.767,100.154,100.154,0,0,1-39.937,0ZM31.046,83.779a71.259,71.259,0,0,0,131.207,0q1.3-3.078,2.305-6.243-1-3.163-2.305-6.243a71.259,71.259,0,0,0-131.207,0q-1.3,3.078-2.305,6.243Q29.743,80.7,31.046,83.779Z" transform="translate(0 0)" fill="#2b879e"/>
        <rect id="Rectangle_142" data-name="Rectangle 142" width="63" height="63" rx="31.5" transform="translate(65.588 45.595)" fill="#2b879e"/>
      </g>
      <rect id="Rectangle_143" data-name="Rectangle 143" width="27.886" height="254.957" rx="10" transform="translate(180.282 0) rotate(45)" fill="#2b879e"/>
    </g>
    <rect id="Rectangle_171" data-name="Rectangle 171" width="199.182" height="199.182" transform="translate(144 4805)" fill="none"/>
  </g>
</svg>
