<svg xmlns="http://www.w3.org/2000/svg" width="198.001" height="198" viewBox="0 0 198.001 198">
  <g id="Group_1360" data-name="Group 1360" transform="translate(-658 -4300)">
    <g id="Group_62" data-name="Group 62" transform="translate(-43.091 457)">
      <rect id="Rectangle_104" data-name="Rectangle 104" width="28" height="138" rx="10" transform="translate(701.091 3871) rotate(-90)" fill="#fff"/>
      <rect id="Rectangle_105" data-name="Rectangle 105" width="28" height="138" rx="10" transform="translate(701.091 3926) rotate(-90)" fill="#fff"/>
      <rect id="Rectangle_106" data-name="Rectangle 106" width="28" height="80" rx="10" transform="translate(701.091 3981) rotate(-90)" fill="#fff"/>
    </g>
    <path id="Exclusion_4" data-name="Exclusion 4" d="M391,852H356.368V805.743a6.007,6.007,0,0,0-6-6H337.631a6.007,6.007,0,0,0-6,6V852H350.76L297,852V802.231l0-25.249L344,745l47,31.981V829.6L391,852v0Z" transform="translate(465 3646)" fill="#fff"/>
  </g>
</svg>
