<svg xmlns="http://www.w3.org/2000/svg" width="200" height="200" viewBox="0 0 200 200">
  <g id="Group_1372" data-name="Group 1372" transform="translate(-142 -5296)">
    <path id="Subtraction_28" data-name="Subtraction 28" d="M100,185.832a101.242,101.242,0,0,1-20.154-2.021A99.954,99.954,0,0,1,7.859,125.061a98.6,98.6,0,0,1-5.828-18.677,100,100,0,0,1,0-40.106A98.711,98.711,0,0,1,17.078,30.7,100.314,100.314,0,0,1,44.089,3.825C45.764,2.7,47.5,1.608,49.246.583V35.715l-.022.022-.037.036a72.122,72.122,0,0,0-8.774,10.582,71.254,71.254,0,0,0,8.774,90.535,72.037,72.037,0,0,0,110.4-10.582,71.138,71.138,0,0,0,0-79.952,72.129,72.129,0,0,0-8.775-10.582c-.348-.346-.706-.695-1.064-1.037V0c2.1,1.2,4.174,2.488,6.163,3.825A100.293,100.293,0,0,1,182.921,30.7a98.994,98.994,0,0,1,0,111.263,99.974,99.974,0,0,1-62.768,41.847A101.25,101.25,0,0,1,100,185.832Z" transform="translate(142 5310.167)" fill="#2b879e"/>
    <rect id="Rectangle_132" data-name="Rectangle 132" width="28" height="80" rx="10" transform="translate(228 5296)" fill="#2b879e"/>
  </g>
</svg>
