<svg xmlns="http://www.w3.org/2000/svg" width="112.631" height="200" viewBox="0 0 112.631 200">
  <g id="Group_80" data-name="Group 80" transform="translate(-4.142 -4.142)">
    <path id="Union_23" data-name="Union 23" d="M8.586,197.051l-5.657-5.7a10.119,10.119,0,0,1,0-14.24L79.516,100,2.929,22.885a10.119,10.119,0,0,1,0-14.24l5.657-5.7a9.951,9.951,0,0,1,14.142,0L109.7,90.523A10.11,10.11,0,0,1,112.354,100a10.11,10.11,0,0,1-2.652,9.477L22.728,197.051a9.951,9.951,0,0,1-14.142,0Z" transform="translate(4.142 4.142)" fill="#fff"/>
  </g>
</svg>
