<svg xmlns="http://www.w3.org/2000/svg" width="112.631" height="200.001" viewBox="0 0 112.631 200.001">
  <g id="Group_81" data-name="Group 81" transform="translate(-451.142 -4785.549)">
    <path id="Union_24" data-name="Union 24" d="M89.9,197.051,2.93,109.477A10.108,10.108,0,0,1,.277,100,10.108,10.108,0,0,1,2.93,90.523L89.9,2.948a9.951,9.951,0,0,1,14.142,0l5.657,5.7a10.117,10.117,0,0,1,0,14.24L33.115,100,109.7,177.116a10.117,10.117,0,0,1,0,14.24l-5.657,5.7a9.951,9.951,0,0,1-14.142,0Z" transform="translate(451.142 4785.549)" fill="#fff"/>
  </g>
</svg>
