<svg xmlns="http://www.w3.org/2000/svg" width="198" height="198" viewBox="0 0 198 198">
  <g id="Group_1361" data-name="Group 1361" transform="translate(-946 -4300)">
    <g id="Group_63" data-name="Group 63" transform="translate(245.31 457)">
      <rect id="Rectangle_104" data-name="Rectangle 104" width="28" height="138" rx="10" transform="translate(700.69 3871) rotate(-90)" fill="#fff"/>
      <rect id="Rectangle_105" data-name="Rectangle 105" width="28" height="138" rx="10" transform="translate(700.69 3926) rotate(-90)" fill="#fff"/>
      <rect id="Rectangle_106" data-name="Rectangle 106" width="28" height="81" rx="10" transform="translate(700.69 3981) rotate(-90)" fill="#fff"/>
    </g>
    <path id="Subtraction_15" data-name="Subtraction 15" d="M392,853H297V823.7a60.811,60.811,0,0,1,15.711-10.015,58.961,58.961,0,0,1,18.378-4.725v-8.381A29.771,29.771,0,0,1,324.7,753.7a29.566,29.566,0,0,1,50.451,21,29.721,29.721,0,0,1-13.97,25.241V809.2a59.013,59.013,0,0,1,22.218,7.524,61.539,61.539,0,0,1,8.6,6.018V853Z" transform="translate(752 3645)" fill="#fff"/>
  </g>
</svg>
