<svg xmlns="http://www.w3.org/2000/svg" width="200" height="200" viewBox="0 0 200 200">
  <g id="Group_1374" data-name="Group 1374" transform="translate(-409 -4322)">
    <g id="Group_1363" data-name="Group 1363" transform="translate(0 4)">
      <g id="Group_72" data-name="Group 72" transform="translate(3 253.98)">
        <path id="Union_3" data-name="Union 3" d="M173.227,111.118,97.835,33.531l-75.39,77.588a9.8,9.8,0,0,1-14.143,0l-5.374-5.53a10.5,10.5,0,0,1,0-14.554L88.457,3.014A9.806,9.806,0,0,1,97.836.277a9.8,9.8,0,0,1,9.378,2.738l39.323,40.468V22.525a10,10,0,0,1,10-10h7.6a10,10,0,0,1,10,10V69.476a10.036,10.036,0,0,1-.236,2.168l18.841,19.39a10.5,10.5,0,0,1,0,14.554l-5.373,5.53a9.8,9.8,0,0,1-14.143,0Z" transform="translate(407.651 4064.02)" fill="#2b879e"/>
        <path id="Path_36" data-name="Path 36" d="M2.392,3.147,16.653,1.714a24.737,24.737,0,0,0,1.886,8.49q2.316,4.723,6.618,4.723A5.73,5.73,0,0,0,30.1,12.512a9.335,9.335,0,0,0,1.737-5.6A9.277,9.277,0,0,0,30.186,1.5Q28.532-.886,22.51-3.009,12.65-6.564,8.447-12.454,4.212-18.344,4.212-27.47A29.8,29.8,0,0,1,6.379-38.8,18.43,18.43,0,0,1,12.9-47.183q4.351-3.051,11.928-3.051,9.3,0,14.178,5.545t5.807,17.643L30.683-25.719q-.563-5.253-2.366-7.641a5.894,5.894,0,0,0-4.98-2.388A4.6,4.6,0,0,0,19.4-33.97a7.037,7.037,0,0,0-1.324,4.325A5.506,5.506,0,0,0,19.168-26.3q1.059,1.539,5.029,2.865,9.827,3.4,14.079,6.872a20.074,20.074,0,0,1,6.188,8.623A32.505,32.505,0,0,1,46.4,3.571a36.121,36.121,0,0,1-2.581,13.8,21.074,21.074,0,0,1-7.213,9.578,19.8,19.8,0,0,1-11.68,3.263q-12.375,0-17.14-7.641T2.392,3.147ZM52.058-9.96q0-19.049,6.618-29.662t18.43-10.612q12.11,0,18.662,10.427T102.32-10.6q0,13.637-2.862,22.366T91.185,25.353A19.44,19.44,0,0,1,77.7,30.208q-8.206,0-13.583-4.192T55.4,12.751Q52.058,3.677,52.058-9.96Zm14.989.106q0,11.78,2.73,16.927t7.428,5.147q4.831,0,7.478-5.041T87.33-10.915q0-10.984-2.763-16.051t-7.495-5.067q-4.533,0-7.279,5.147T67.047-9.854Zm43.346-39.054h14.989V9.726h23.394V28.882H110.393Zm45.4,0h22.269q6.585,0,10.638,2.865a21.394,21.394,0,0,1,6.7,8.225,44.778,44.778,0,0,1,3.838,12.47,91.187,91.187,0,0,1,1.191,15.07q0,12.47-1.77,19.341a36.793,36.793,0,0,1-4.914,11.514q-3.143,4.643-6.75,6.182a22.882,22.882,0,0,1-8.934,2.122H155.791ZM170.78-31.291v42.5h3.673q4.7,0,6.684-1.671t3.11-5.837q1.125-4.165,1.125-13.5,0-12.363-2.515-16.927t-8.338-4.563Z" transform="translate(404.608 4233.812)" fill="#2b879e"/>
      </g>
      <rect id="Rectangle_168" data-name="Rectangle 168" width="200" height="200" transform="translate(409 4318)" fill="none"/>
    </g>
  </g>
</svg>
